<svg xmlns="http://www.w3.org/2000/svg" viewBox="0 0 232.81 250.89"><defs><style>.cls-1{fill:#fe6b67;}</style></defs><title>Asset 2</title><g id="Layer_2" data-name="Layer 2"><g id="Layer_1-2" data-name="Layer 1"><path class="cls-1" d="M0,163.74Q0,123.42,0,83.1C0,77.57,4.14,76,7.91,73.69c3.5-2.14,6.67-4.8,10.07-7.12,4.47-3,9.08-5.87,13.52-9S40.38,50.92,45,47.8s9.68-6,14.42-9.18c4-2.64,7.73-5.6,11.67-8.28s7.94-5,11.77-7.71c3.23-2.27,6.11-5,9.35-7.26,2.58-1.79,5.72-2.81,8.16-4.73,5-3.91,9.94-7.83,15.7-10.37,2.51-1.1,4.74,1.42,6.8,2.94s3.86,3,5.88,4.43c2.69,1.85,5.5,3.52,8.21,5.35,3.23,2.19,6.39,4.47,9.59,6.69s6.24,4.37,9.42,6.46c4,2.61,8.05,5.05,12,7.72,3.43,2.33,6.66,4.94,10.07,7.3,4.74,3.28,9.59,6.4,14.35,9.66,2.95,2,5.57,4.75,8.78,6.06,4,1.63,6.2,5.31,10,7.11,3.57,1.69,6.51,4.69,9.79,7s6.42,4.56,9.76,6.62A3.9,3.9,0,0,1,232.75,81q.1,82.32,0,164.64c0,3.37-2.88,4.88-5.83,4.89q-59.22.14-118.44.05c-3.68,0-4.69-3-5.46-5.79a37.86,37.86,0,0,1-.88-14.33c.43-3.87-.69-5.89-4.46-6.77-5.32-1.24-8.5-5.53-11.53-9.41-3.79-4.87-4.92-10.91-5.14-17.11-.15-4.23,2.62-6.12,5.74-7.29,2.94-1.11,4.71-2.83,5.1-5.76A21.52,21.52,0,0,1,106.39,166c5.74-2.12,7.15-5.06,6.72-10.75-.46-6.14,4.4-8.5,10.56-6.35a65.42,65.42,0,0,1,14.9,6.84c6.7,4.44,12.92,9.44,17.38,16.41a201.36,201.36,0,0,1,12.67,23.2c1.32,2.83,1.63,6.13,2.4,9.22.42,1.69,2.82,3.19,1.33,5-2.62,3.15-4.78,1-6.22-1.39a193.28,193.28,0,0,1-10-17.66c-3.2-6.85-8.79-11.68-13.37-17.33a38.59,38.59,0,0,0-17.3-12.33c-.88-.3-1.75-.2-1.58,1.12,1,7.7-2.85,11-10.06,11.9-5.84.75-12.23,8.5-11.91,14.56.3,5.61-2.56,8-7.37,9.39s-2,4.78-1.23,7.22c2.73,8.7,10,10.53,17.86,11.95,2.74.5,3.39,3.38,2.53,6.13-1.65,5.26-.77,10.67-.86,16,0,.26.83.76,1.27.76q53.38.07,106.79.09c1.43,0,2.06-.35,2-2,0-49.2-.13-98.4.11-147.6,0-4.74-1.43-7.44-5.28-9.63s-7.55-4.65-11.23-7.12c-4.3-2.88-8.59-5.79-12.76-8.86C189,61.18,184.65,57,179.56,54c-5.56-3.26-11.19-6.41-16.22-10.41-4.15-3.31-8.75-5.93-12.78-9.47-4.23-3.71-9.49-6.26-14.29-9.34-3.46-2.22-6.55-5-9.79-7.41-2.73-2.06-5.94-5.23-9.11-5.27-2.89,0-5.84,3.12-8.71,4.95-4,2.57-8.15,5.09-12.06,7.87-5.12,3.64-10,7.66-15.13,11.26-4.28,3-8.9,5.51-13.24,8.44-3.93,2.65-7.6,5.69-11.54,8.33-5.06,3.38-10.37,6.41-15.42,9.82-5.58,3.76-11,7.8-16.48,11.67-4.41,3.09-8.91,6.06-13.28,9.21A3.34,3.34,0,0,0,10.75,86c-.06,11,.27,22-.12,33-1.38,39.12-.21,78.24-.56,117.36,0,1.06-1.12,3.11.84,3.23,2.53.16,5.46,1.43,7.11-2.47,2.17-5.16,4.42-10.29,8.35-14.64,2.84-3.15,4.28-7.53,6.76-11.08,3.31-4.75,7.08-9.17,10.52-13.83,1.93-2.61,3.59-5.42,5.39-8.13,2.85-4.28,6.17-8.32,8.44-12.89,2.1-4.26,5.15-8,6.57-12.67s4-8.78,5.82-13.25c1.23-3,2.06-6.22,3-9.35,1.63-5.45-3.51-5.68-6.17-7.28a96.94,96.94,0,0,1-10.3-7c-5.06-4-7.15-8.9-6.25-14.66.84-5.33,3.34-10.21,6.31-15A94.52,94.52,0,0,1,67.14,82.71c4.52-4.87,9.38-9.54,15.2-12.95,5.45-3.18,10.61-7,16.72-8.85,6.91-2.13,14-2.81,21.22-3.46,9-.82,17,1.29,25,5,7.76,3.63,14,9.25,20.93,14a4,4,0,0,0,2.11.27c6.36,0,12.74-.33,19.07.1,5.65.38,9.51,2.82,10.82,9.38a34.73,34.73,0,0,1-.67,17.47c-1.58,5-5.18,9.2-9,13.15-4.77,4.91-10.92,7.63-16.38,11.26-4.63,3.08-9.76,5.53-13.68,9.57-3,3.08-5.43,6.72-8.1,10.12-1.23,1.56-3.34,1.41-4,.38-1-1.68,0-3.63.79-5.55,2.34-5.58,7.56-8.6,11.13-13.07,2.27-2.84,5.84-4.71,9-6.82,6.21-4.19,10.93-9.85,15.88-15.36,4.42-4.92,5.8-10.61,5.61-16.87-.06-2.15-.63-4.15-3.81-3.94-4.63.32-9.3-.08-13.91.26-7.1.54-12-3.65-17.24-7.31-3.86-2.71-8.23-4.6-12.09-7.12-8-5.21-16.67-5.1-25.38-4.47a58.2,58.2,0,0,0-19.07,4.89C91,75.56,85.8,80,80.42,84.31c-3.4,2.71-6.06,6-9.17,8.92s-5,7.16-7.28,10.94c-1.52,2.56-3.17,5.21-3.87,8-1.46,5.86,3.73,7.58,7.12,10.53,4.45,3.86,10.12,5.41,15,8.54a47.32,47.32,0,0,0,10.94,5.2c3,1,4-2.35,4.62-4.21a35.36,35.36,0,0,0,.91-16.06c-.39-2.46-.47-4.89-.69-7.32-.44-4.81-1.1-9.65-.85-14.44a12.56,12.56,0,0,1,6.06-10.28,1.66,1.66,0,0,1,1.49.58c.54,1.16,1.54,3.07,1.1,3.56-1.54,1.72-.73,3.61-.91,5.36-1.17,11.26,3.19,22,3.23,33.18,0,6.7-.64,12.68-6.29,17.26-2.26,1.84-12.39,2.26-14.74.26s-4.48-1.25-5.06,1.8C80.69,153,77.22,159,74.79,165.32c-2.83,7.4-7.23,14-11.58,20.66-5.11,7.76-10.05,15.64-15.3,23.31-3.65,5.33-7.94,10.24-11.48,15.65a69,69,0,0,0-7.55,14.14c-4.09,11.39-4,11.71-16.45,11.57-3.37,0-6.9,1-10.12-.91A4.44,4.44,0,0,1,0,245.58Q0,204.66,0,163.74Zm150.38-17a1.54,1.54,0,0,0-.12.44c0,.07.15.12.23.18a1.06,1.06,0,0,0,.18-.35C150.7,147,150.55,146.91,150.4,146.77Z"/></g></g></svg>